<?xml version="1.0" encoding="UTF-8" standalone="no"?><!DOCTYPE svg PUBLIC "-//W3C//DTD SVG 1.1//EN" "http://www.w3.org/Graphics/SVG/1.1/DTD/svg11.dtd"><svg width="100%" height="100%" viewBox="0 0 296 225" version="1.1" xmlns="http://www.w3.org/2000/svg" xmlns:xlink="http://www.w3.org/1999/xlink" xml:space="preserve" xmlns:serif="http://www.serif.com/" style="fill-rule:evenodd;clip-rule:evenodd;stroke-linejoin:round;stroke-miterlimit:2;"><path d="M125.65,5.067l-65.108,50.942l-47.121,0.75c-7.45,0.121 -13.417,6.187 -13.417,13.638l-0,82.325c0,7.671 6.325,13.842 13.996,13.638l46.542,-1.229l65.108,50.942c8.95,7.008 22.046,0.629 22.046,-10.742l0,-189.529c0,-11.354 -13.075,-17.746 -22.046,-10.742l-0,0.008Zm71.008,44.446l-21.854,26.171c10.4,8.679 16.35,21.412 16.35,34.933c0,13.483 -5.933,26.204 -16.283,34.883l21.908,26.137c18.104,-15.175 28.471,-37.421 28.471,-61.013c0,-23.646 -10.417,-45.913 -28.592,-61.1l0,-0.012Zm43.404,-49.508l-20.867,26.971c26.117,20.204 41.104,50.683 41.104,83.658c0,32.954 -14.967,63.438 -41.071,83.642l20.867,26.971c34.504,-26.717 54.296,-67.017 54.296,-110.613c-0.017,-43.592 -19.812,-83.917 -54.333,-110.629l0,0.004l0.004,-0.004Z" style="fill:#eaeaea;fill-rule:nonzero;"/></svg>