<?xml version="1.0" encoding="UTF-8" standalone="no"?><!DOCTYPE svg PUBLIC "-//W3C//DTD SVG 1.1//EN" "http://www.w3.org/Graphics/SVG/1.1/DTD/svg11.dtd"><svg width="100%" height="100%" viewBox="0 0 31 53" version="1.1" xmlns="http://www.w3.org/2000/svg" xmlns:xlink="http://www.w3.org/1999/xlink" xml:space="preserve" xmlns:serif="http://www.serif.com/" style="fill-rule:evenodd;clip-rule:evenodd;stroke-linejoin:round;stroke-miterlimit:2;"><g><path d="M12.546,20.093l0,-15.21c0,-1.975 1.192,-3.756 3.012,-4.512c1.821,-0.756 3.923,-0.335 5.315,1.058c2.852,2.852 6.333,6.326 8.509,8.502c0.944,0.951 1.466,2.243 1.426,3.581c-0.04,1.339 -0.616,2.604 -1.613,3.501l-10.028,9.031l10.028,9.031c0.997,0.897 1.573,2.162 1.613,3.494c0.04,1.346 -0.482,2.644 -1.426,3.581c-2.169,2.169 -5.65,5.65 -8.502,8.502c-1.392,1.399 -3.494,1.814 -5.322,1.058c-1.821,-0.75 -3.012,-2.53 -3.012,-4.512l0,-15.203l-9.057,8.154c-0.857,0.777 -2.182,0.703 -2.952,-0.154c-0.77,-0.857 -0.703,-2.182 0.154,-2.952l11.856,-10.671l0,-0.649l-11.856,-10.677c-0.857,-0.77 -0.924,-2.095 -0.154,-2.952c0.77,-0.857 2.095,-0.931 2.952,-0.154l9.057,8.154Zm4.184,9.392l0,17.713c0,0.288 0.167,0.536 0.428,0.649c0.261,0.114 0.556,0.047 0.763,-0.147c2.852,-2.852 6.326,-6.326 8.502,-8.502c0.141,-0.141 0.208,-0.328 0.201,-0.509c0,-0.194 -0.087,-0.382 -0.228,-0.502l-9.667,-8.703Zm0,-6.882l9.667,-8.696c0.141,-0.127 0.228,-0.308 0.228,-0.502c0.007,-0.187 -0.067,-0.375 -0.201,-0.509c-2.169,-2.169 -5.65,-5.65 -8.502,-8.502c-0.201,-0.201 -0.502,-0.261 -0.763,-0.147c-0.261,0.114 -0.428,0.355 -0.428,0.636l0,17.72Z" style="fill:#eaeaea;fill-rule:nonzero;"/></g></svg>