<?xml version="1.0" encoding="UTF-8" standalone="no"?><!DOCTYPE svg PUBLIC "-//W3C//DTD SVG 1.1//EN" "http://www.w3.org/Graphics/SVG/1.1/DTD/svg11.dtd"><svg width="100%" height="100%" viewBox="0 0 230 230" version="1.1" xmlns="http://www.w3.org/2000/svg" xmlns:xlink="http://www.w3.org/1999/xlink" xml:space="preserve" xmlns:serif="http://www.serif.com/" style="fill-rule:evenodd;clip-rule:evenodd;stroke-linejoin:round;stroke-miterlimit:2;"><path d="M229.002,99.861c-0.01,-1.188 -0.857,-2.2 -2.015,-2.424l-25.786,-5.052l-8.838,-21.648l14.416,-23.741c0.574,-0.944 0.457,-2.151 -0.282,-2.969l-19.264,-21.249c-0.808,-0.896 -2.141,-1.08 -3.163,-0.448l-24.344,15.117l-22.816,-9.228l-5.675,-25.903c-0.253,-1.129 -1.246,-1.947 -2.404,-1.957l-27.879,-0.36c-1.246,-0.01 -2.151,0.75 -2.443,1.849l-6.609,24.919l-20.402,10.912l-24.88,-15.545c-1.003,-0.623 -2.307,-0.457 -3.125,0.399l-20.762,21.843c-0.788,0.827 -0.915,2.093 -0.292,3.057l14.971,23.449l-7.826,19.925l-27.049,7.038c-1.08,0.282 -1.84,1.246 -1.859,2.356l-0.672,29.913c-0.029,1.188 0.788,2.229 1.947,2.482l26.496,5.967l8.245,21.191l-14.484,23.8c-0.604,0.993 -0.438,2.268 0.389,3.086l21.901,21.249c0.837,0.808 2.132,0.934 3.105,0.292l23.868,-15.759l20.47,8.868l6.833,26.721c0.282,1.11 1.285,1.879 2.414,1.879l0.097,0l28.871,-1.158c1.11,-0.049 2.054,-0.818 2.326,-1.898l6.22,-25.475l20.422,-8.05l23.429,14.338c0.983,0.594 2.229,0.457 3.047,-0.35l21.405,-21.074c0.847,-0.827 0.983,-2.132 0.35,-3.125l-15.049,-23.4l8.654,-22.047l26.302,-5.344c1.168,-0.243 2.005,-1.275 1.995,-2.463l-0.254,-29.98Zm-114.151,75.534c-34.116,0 -61.869,-27.665 -61.869,-61.674c0,-34.002 27.752,-61.664 61.869,-61.664c34.116,0 61.869,27.665 61.869,61.664c0,34.009 -27.752,61.674 -61.869,61.674Z" style="fill:#eaeaea;fill-rule:nonzero;"/></svg>