<?xml version="1.0" encoding="UTF-8" standalone="no"?><!DOCTYPE svg PUBLIC "-//W3C//DTD SVG 1.1//EN" "http://www.w3.org/Graphics/SVG/1.1/DTD/svg11.dtd"><svg width="100%" height="100%" viewBox="0 0 52 53" version="1.1" xmlns="http://www.w3.org/2000/svg" xmlns:xlink="http://www.w3.org/1999/xlink" xml:space="preserve" xmlns:serif="http://www.serif.com/" style="fill-rule:evenodd;clip-rule:evenodd;stroke-linejoin:round;stroke-miterlimit:2;"><path d="M11.981,52.527c-2.239,0 -4.267,-0.494 -6.083,-1.481c-1.799,-0.97 -3.236,-2.319 -4.311,-4.047c-1.058,-1.728 -1.587,-3.729 -1.587,-6.004c0,-2.275 0.529,-4.276 1.587,-6.004c1.076,-1.728 2.513,-3.077 4.311,-4.047c1.816,-0.987 3.844,-1.481 6.083,-1.481l27.533,0c2.239,0 4.258,0.494 6.057,1.481c1.816,0.97 3.253,2.319 4.311,4.047c1.075,1.728 1.613,3.729 1.613,6.004c0,2.275 -0.538,4.276 -1.613,6.004c-1.058,1.728 -2.495,3.077 -4.311,4.047c-1.798,0.988 -3.818,1.481 -6.057,1.481l-27.533,0Zm28.221,-5.21c1.146,0 2.195,-0.291 3.148,-0.873c0.952,-0.564 1.71,-1.331 2.275,-2.301c0.582,-0.97 0.882,-2.045 0.899,-3.227c0,-1.146 -0.282,-2.186 -0.846,-3.121c-0.564,-0.952 -1.331,-1.71 -2.301,-2.275c-0.952,-0.564 -2.01,-0.846 -3.174,-0.846c-1.164,0 -2.222,0.282 -3.174,0.846c-0.952,0.564 -1.71,1.322 -2.275,2.275c-0.564,0.952 -0.846,2.01 -0.846,3.174c0,1.164 0.282,2.221 0.846,3.174c0.564,0.952 1.322,1.71 2.275,2.275c0.952,0.582 2.01,0.881 3.174,0.899Zm-27.136,-21.899c-2.468,0 -4.69,-0.529 -6.665,-1.587c-1.975,-1.058 -3.535,-2.539 -4.681,-4.443c-1.146,-1.922 -1.719,-4.144 -1.719,-6.665c0,-2.539 0.573,-4.761 1.719,-6.665c1.146,-1.922 2.707,-3.412 4.681,-4.47c1.975,-1.058 4.196,-1.587 6.665,-1.587l25.364,0c2.469,0 4.69,0.529 6.665,1.587c1.975,1.058 3.535,2.548 4.682,4.47c1.146,1.904 1.719,4.126 1.719,6.665c0,2.521 -0.573,4.743 -1.719,6.665c-1.146,1.904 -2.707,3.385 -4.682,4.443c-1.975,1.058 -4.196,1.587 -6.665,1.587l-25.364,0Zm0,-5.316l25.364,0c1.411,0 2.698,-0.309 3.862,-0.926c1.181,-0.635 2.125,-1.508 2.83,-2.618c0.705,-1.111 1.058,-2.389 1.058,-3.835c0,-1.463 -0.352,-2.742 -1.058,-3.835c-0.705,-1.111 -1.649,-1.975 -2.83,-2.592c-1.164,-0.635 -2.451,-0.952 -3.862,-0.952l-25.364,0c-1.411,0 -2.707,0.317 -3.888,0.952c-1.164,0.617 -2.098,1.481 -2.804,2.592c-0.705,1.093 -1.058,2.372 -1.058,3.835c0,1.446 0.353,2.724 1.058,3.835c0.705,1.111 1.64,1.984 2.804,2.618c1.181,0.617 2.477,0.926 3.888,0.926Zm0,-1.719c-1.058,0 -2.019,-0.256 -2.883,-0.767c-0.846,-0.511 -1.525,-1.199 -2.037,-2.063c-0.494,-0.864 -0.741,-1.816 -0.741,-2.856c0,-1.04 0.247,-1.992 0.741,-2.856c0.511,-0.864 1.19,-1.552 2.037,-2.063c0.864,-0.511 1.825,-0.767 2.883,-0.767c1.058,0 2.019,0.256 2.883,0.767c0.864,0.494 1.552,1.173 2.063,2.037c0.511,0.846 0.758,1.798 0.741,2.856c0,1.058 -0.256,2.019 -0.767,2.883c-0.511,0.864 -1.199,1.56 -2.063,2.089c-0.846,0.511 -1.799,0.758 -2.856,0.741Z" style="fill:#eaeaea;fill-rule:nonzero;"/><path d="M11.981,52.527c-2.239,0 -4.267,-0.494 -6.083,-1.481c-1.799,-0.97 -3.236,-2.319 -4.311,-4.047c-1.058,-1.728 -1.587,-3.729 -1.587,-6.004c0,-2.275 0.529,-4.276 1.587,-6.004c1.076,-1.728 2.513,-3.077 4.311,-4.047c1.816,-0.987 3.844,-1.481 6.083,-1.481l27.533,0c2.239,0 4.258,0.494 6.057,1.481c1.816,0.97 3.253,2.319 4.311,4.047c1.075,1.728 1.613,3.729 1.613,6.004c0,2.275 -0.538,4.276 -1.613,6.004c-1.058,1.728 -2.495,3.077 -4.311,4.047c-1.798,0.988 -3.818,1.481 -6.057,1.481l-27.533,0Zm28.221,-5.21c1.146,0 2.195,-0.291 3.148,-0.873c0.952,-0.564 1.71,-1.331 2.275,-2.301c0.582,-0.97 0.882,-2.045 0.899,-3.227c0,-1.146 -0.282,-2.186 -0.846,-3.121c-0.564,-0.952 -1.331,-1.71 -2.301,-2.275c-0.952,-0.564 -2.01,-0.846 -3.174,-0.846c-1.164,0 -2.222,0.282 -3.174,0.846c-0.952,0.564 -1.71,1.322 -2.275,2.275c-0.564,0.952 -0.846,2.01 -0.846,3.174c0,1.164 0.282,2.221 0.846,3.174c0.564,0.952 1.322,1.71 2.275,2.275c0.952,0.582 2.01,0.881 3.174,0.899Zm-27.136,-21.899c-2.468,0 -4.69,-0.529 -6.665,-1.587c-1.975,-1.058 -3.535,-2.539 -4.681,-4.443c-1.146,-1.922 -1.719,-4.144 -1.719,-6.665c0,-2.539 0.573,-4.761 1.719,-6.665c1.146,-1.922 2.707,-3.412 4.681,-4.47c1.975,-1.058 4.196,-1.587 6.665,-1.587l25.364,0c2.469,0 4.69,0.529 6.665,1.587c1.975,1.058 3.535,2.548 4.682,4.47c1.146,1.904 1.719,4.126 1.719,6.665c0,2.521 -0.573,4.743 -1.719,6.665c-1.146,1.904 -2.707,3.385 -4.682,4.443c-1.975,1.058 -4.196,1.587 -6.665,1.587l-25.364,0Zm0,-5.316l25.364,0c1.411,0 2.698,-0.309 3.862,-0.926c1.181,-0.635 2.125,-1.508 2.83,-2.618c0.705,-1.111 1.058,-2.389 1.058,-3.835c0,-1.463 -0.352,-2.742 -1.058,-3.835c-0.705,-1.111 -1.649,-1.975 -2.83,-2.592c-1.164,-0.635 -2.451,-0.952 -3.862,-0.952l-25.364,0c-1.411,0 -2.707,0.317 -3.888,0.952c-1.164,0.617 -2.098,1.481 -2.804,2.592c-0.705,1.093 -1.058,2.372 -1.058,3.835c0,1.446 0.353,2.724 1.058,3.835c0.705,1.111 1.64,1.984 2.804,2.618c1.181,0.617 2.477,0.926 3.888,0.926Zm0,-1.719c-1.058,0 -2.019,-0.256 -2.883,-0.767c-0.846,-0.511 -1.525,-1.199 -2.037,-2.063c-0.494,-0.864 -0.741,-1.816 -0.741,-2.856c0,-1.04 0.247,-1.992 0.741,-2.856c0.511,-0.864 1.19,-1.552 2.037,-2.063c0.864,-0.511 1.825,-0.767 2.883,-0.767c1.058,0 2.019,0.256 2.883,0.767c0.864,0.494 1.552,1.173 2.063,2.037c0.511,0.846 0.758,1.798 0.741,2.856c0,1.058 -0.256,2.019 -0.767,2.883c-0.511,0.864 -1.199,1.56 -2.063,2.089c-0.846,0.511 -1.799,0.758 -2.856,0.741Z" style="fill:#eaeaea;fill-opacity:0.2;fill-rule:nonzero;"/></svg>