<?xml version="1.0" encoding="UTF-8" standalone="no"?><!DOCTYPE svg PUBLIC "-//W3C//DTD SVG 1.1//EN" "http://www.w3.org/Graphics/SVG/1.1/DTD/svg11.dtd"><svg width="100%" height="100%" viewBox="0 0 59 55" version="1.1" xmlns="http://www.w3.org/2000/svg" xmlns:xlink="http://www.w3.org/1999/xlink" xml:space="preserve" xmlns:serif="http://www.serif.com/" style="fill-rule:evenodd;clip-rule:evenodd;stroke-linejoin:round;stroke-miterlimit:2;"><path d="M2.85,22.03c0,-2.998 0.564,-5.819 1.693,-8.464c1.128,-2.645 2.698,-4.963 4.708,-6.956c2.01,-2.01 4.329,-3.579 6.956,-4.708c2.645,-1.128 5.475,-1.693 8.49,-1.693c3.015,-0 5.836,0.564 8.464,1.693c2.645,1.128 4.972,2.698 6.982,4.708c2.01,1.992 3.579,4.311 4.708,6.956c1.128,2.645 1.692,5.466 1.692,8.464c0,2.257 -0.335,4.408 -1.005,6.453c-0.652,2.045 -1.569,3.923 -2.751,5.634l11.4,11.452c0.423,0.441 0.74,0.926 0.952,1.455c0.229,0.547 0.344,1.129 0.344,1.746c0,0.846 -0.194,1.613 -0.582,2.301c-0.388,0.688 -0.917,1.225 -1.587,1.613c-0.67,0.406 -1.446,0.608 -2.328,0.608c-0.6,0 -1.181,-0.106 -1.745,-0.317c-0.564,-0.212 -1.067,-0.538 -1.508,-0.979l-11.505,-11.505c-1.657,1.058 -3.465,1.896 -5.422,2.513c-1.94,0.6 -3.976,0.899 -6.11,0.899c-3.015,0 -5.845,-0.564 -8.49,-1.693c-2.627,-1.129 -4.946,-2.698 -6.956,-4.708c-2.01,-2.01 -3.579,-4.338 -4.708,-6.982c-1.128,-2.645 -1.693,-5.475 -1.693,-8.49Zm6.242,0c0,2.169 0.397,4.197 1.19,6.083c0.811,1.887 1.931,3.544 3.359,4.972c1.446,1.428 3.112,2.548 4.999,3.359c1.887,0.811 3.906,1.217 6.057,1.217c2.151,0 4.17,-0.406 6.057,-1.217c1.887,-0.811 3.544,-1.931 4.972,-3.359c1.428,-1.428 2.548,-3.086 3.359,-4.972c0.811,-1.887 1.217,-3.914 1.217,-6.083c0,-2.151 -0.406,-4.161 -1.217,-6.03c-0.811,-1.887 -1.931,-3.544 -3.359,-4.972c-1.428,-1.446 -3.086,-2.574 -4.972,-3.385c-1.887,-0.811 -3.906,-1.217 -6.057,-1.217c-2.151,0 -4.17,0.406 -6.057,1.217c-1.887,0.811 -3.553,1.94 -4.999,3.385c-1.428,1.428 -2.548,3.086 -3.359,4.972c-0.793,1.869 -1.19,3.879 -1.19,6.03Z" style="fill:#eaeaea;fill-rule:nonzero;"/><path d="M2.85,22.03c0,-2.998 0.564,-5.819 1.693,-8.464c1.128,-2.645 2.698,-4.963 4.708,-6.956c2.01,-2.01 4.329,-3.579 6.956,-4.708c2.645,-1.128 5.475,-1.693 8.49,-1.693c3.015,-0 5.836,0.564 8.464,1.693c2.645,1.128 4.972,2.698 6.982,4.708c2.01,1.992 3.579,4.311 4.708,6.956c1.128,2.645 1.692,5.466 1.692,8.464c0,2.257 -0.335,4.408 -1.005,6.453c-0.652,2.045 -1.569,3.923 -2.751,5.634l11.4,11.452c0.423,0.441 0.74,0.926 0.952,1.455c0.229,0.547 0.344,1.129 0.344,1.746c0,0.846 -0.194,1.613 -0.582,2.301c-0.388,0.688 -0.917,1.225 -1.587,1.613c-0.67,0.406 -1.446,0.608 -2.328,0.608c-0.6,0 -1.181,-0.106 -1.745,-0.317c-0.564,-0.212 -1.067,-0.538 -1.508,-0.979l-11.505,-11.505c-1.657,1.058 -3.465,1.896 -5.422,2.513c-1.94,0.6 -3.976,0.899 -6.11,0.899c-3.015,0 -5.845,-0.564 -8.49,-1.693c-2.627,-1.129 -4.946,-2.698 -6.956,-4.708c-2.01,-2.01 -3.579,-4.338 -4.708,-6.982c-1.128,-2.645 -1.693,-5.475 -1.693,-8.49Zm6.242,0c0,2.169 0.397,4.197 1.19,6.083c0.811,1.887 1.931,3.544 3.359,4.972c1.446,1.428 3.112,2.548 4.999,3.359c1.887,0.811 3.906,1.217 6.057,1.217c2.151,0 4.17,-0.406 6.057,-1.217c1.887,-0.811 3.544,-1.931 4.972,-3.359c1.428,-1.428 2.548,-3.086 3.359,-4.972c0.811,-1.887 1.217,-3.914 1.217,-6.083c0,-2.151 -0.406,-4.161 -1.217,-6.03c-0.811,-1.887 -1.931,-3.544 -3.359,-4.972c-1.428,-1.446 -3.086,-2.574 -4.972,-3.385c-1.887,-0.811 -3.906,-1.217 -6.057,-1.217c-2.151,0 -4.17,0.406 -6.057,1.217c-1.887,0.811 -3.553,1.94 -4.999,3.385c-1.428,1.428 -2.548,3.086 -3.359,4.972c-0.793,1.869 -1.19,3.879 -1.19,6.03Z" style="fill:#eaeaea;fill-opacity:0.2;fill-rule:nonzero;"/></svg>