<?xml version="1.0" encoding="UTF-8" standalone="no"?><!DOCTYPE svg PUBLIC "-//W3C//DTD SVG 1.1//EN" "http://www.w3.org/Graphics/SVG/1.1/DTD/svg11.dtd"><svg width="100%" height="100%" viewBox="0 0 230 230" version="1.1" xmlns="http://www.w3.org/2000/svg" xmlns:xlink="http://www.w3.org/1999/xlink" xml:space="preserve" xmlns:serif="http://www.serif.com/" style="fill-rule:evenodd;clip-rule:evenodd;stroke-linejoin:round;stroke-miterlimit:2;"><path d="M114.938,229.887c-15.871,0 -30.746,-3.013 -44.633,-9.037c-13.888,-5.95 -26.117,-14.179 -36.696,-24.688c-10.504,-10.504 -18.733,-22.7 -24.683,-36.588c-5.95,-13.887 -8.925,-28.762 -8.925,-44.633c0,-15.871 2.975,-30.746 8.925,-44.633c5.95,-13.883 14.179,-26.079 24.683,-36.588c10.579,-10.579 22.812,-18.846 36.696,-24.796c13.883,-5.95 28.763,-8.925 44.633,-8.925c15.871,0 30.746,2.975 44.633,8.925c13.883,5.95 26.083,14.217 36.588,24.796c10.508,10.504 18.733,22.7 24.688,36.588c6.025,13.887 9.037,28.762 9.037,44.633c0,15.871 -3.012,30.746 -9.037,44.633c-5.95,13.888 -14.179,26.083 -24.688,36.588c-10.504,10.508 -22.7,18.733 -36.588,24.688c-13.883,6.025 -28.762,9.037 -44.633,9.037Zm-0,-25.238c12.417,0 24.025,-2.312 34.825,-6.942c10.875,-4.629 20.387,-11.058 28.542,-19.287c8.229,-8.3 14.654,-17.854 19.283,-28.65c4.704,-10.875 7.054,-22.483 7.054,-34.825c0,-12.417 -2.35,-24.025 -7.054,-34.825c-4.629,-10.875 -11.054,-20.425 -19.283,-28.654c-8.154,-8.229 -17.671,-14.658 -28.542,-19.288c-10.8,-4.629 -22.408,-6.942 -34.825,-6.942c-12.417,0 -24.063,2.312 -34.933,6.942c-10.8,4.629 -20.312,11.058 -28.542,19.288c-8.229,8.229 -14.658,17.779 -19.287,28.654c-4.629,10.8 -6.942,22.408 -6.942,34.825c0,12.342 2.312,23.95 6.942,34.825c4.629,10.8 11.058,20.35 19.287,28.65c8.229,8.229 17.742,14.658 28.542,19.287c10.875,4.629 22.517,6.942 34.933,6.942Zm72.075,-16.863c-7.2,6.171 -15.062,11.35 -23.583,15.538c-8.45,4.262 -16.896,7.458 -25.346,9.588c-8.45,2.204 -16.162,3.304 -23.142,3.304c-6.833,0 -14.508,-1.104 -23.033,-3.304c-8.45,-2.133 -16.933,-5.325 -25.458,-9.588c-8.521,-4.188 -16.346,-9.367 -23.475,-15.538l0.442,-2.425c2.717,-5.363 7.383,-10.471 13.996,-15.317c6.612,-4.921 14.804,-8.925 24.575,-12.013c9.771,-3.087 20.754,-4.629 32.95,-4.629c12.342,0 23.4,1.542 33.171,4.629c9.771,3.088 17.925,7.092 24.467,12.013c6.613,4.85 11.279,9.992 13.996,15.429l0.442,2.312Zm-72.075,-52.125c-7.125,-0.075 -13.554,-1.946 -19.283,-5.621c-5.729,-3.675 -10.288,-8.633 -13.667,-14.879c-3.304,-6.317 -4.996,-13.408 -5.071,-21.271c-0.075,-7.421 1.579,-14.217 4.958,-20.388c3.454,-6.171 8.046,-11.129 13.775,-14.879c5.804,-3.746 12.233,-5.621 19.283,-5.621c7.125,0 13.554,1.875 19.283,5.621c5.729,3.746 10.287,8.704 13.667,14.879c3.454,6.171 5.179,12.967 5.179,20.388c0,7.862 -1.692,14.95 -5.071,21.271c-3.379,6.317 -7.933,11.35 -13.667,15.096c-5.729,3.675 -12.196,5.475 -19.396,5.4l0.008,0.004Z" style="fill:#eaeaea;fill-rule:nonzero;"/><path d="M114.938,229.887c-15.871,0 -30.746,-3.013 -44.633,-9.037c-13.888,-5.95 -26.117,-14.179 -36.696,-24.688c-10.504,-10.504 -18.733,-22.7 -24.683,-36.588c-5.95,-13.887 -8.925,-28.762 -8.925,-44.633c0,-15.871 2.975,-30.746 8.925,-44.633c5.95,-13.883 14.179,-26.079 24.683,-36.588c10.579,-10.579 22.812,-18.846 36.696,-24.796c13.883,-5.95 28.763,-8.925 44.633,-8.925c15.871,0 30.746,2.975 44.633,8.925c13.883,5.95 26.083,14.217 36.588,24.796c10.508,10.504 18.733,22.7 24.688,36.588c6.025,13.887 9.037,28.762 9.037,44.633c0,15.871 -3.012,30.746 -9.037,44.633c-5.95,13.888 -14.179,26.083 -24.688,36.588c-10.504,10.508 -22.7,18.733 -36.588,24.688c-13.883,6.025 -28.762,9.037 -44.633,9.037Zm-0,-25.238c12.417,0 24.025,-2.312 34.825,-6.942c10.875,-4.629 20.387,-11.058 28.542,-19.287c8.229,-8.3 14.654,-17.854 19.283,-28.65c4.704,-10.875 7.054,-22.483 7.054,-34.825c0,-12.417 -2.35,-24.025 -7.054,-34.825c-4.629,-10.875 -11.054,-20.425 -19.283,-28.654c-8.154,-8.229 -17.671,-14.658 -28.542,-19.288c-10.8,-4.629 -22.408,-6.942 -34.825,-6.942c-12.417,0 -24.063,2.312 -34.933,6.942c-10.8,4.629 -20.312,11.058 -28.542,19.288c-8.229,8.229 -14.658,17.779 -19.287,28.654c-4.629,10.8 -6.942,22.408 -6.942,34.825c0,12.342 2.312,23.95 6.942,34.825c4.629,10.8 11.058,20.35 19.287,28.65c8.229,8.229 17.742,14.658 28.542,19.287c10.875,4.629 22.517,6.942 34.933,6.942Zm72.075,-16.863c-7.2,6.171 -15.062,11.35 -23.583,15.538c-8.45,4.262 -16.896,7.458 -25.346,9.588c-8.45,2.204 -16.162,3.304 -23.142,3.304c-6.833,0 -14.508,-1.104 -23.033,-3.304c-8.45,-2.133 -16.933,-5.325 -25.458,-9.588c-8.521,-4.188 -16.346,-9.367 -23.475,-15.538l0.442,-2.425c2.717,-5.363 7.383,-10.471 13.996,-15.317c6.612,-4.921 14.804,-8.925 24.575,-12.013c9.771,-3.087 20.754,-4.629 32.95,-4.629c12.342,0 23.4,1.542 33.171,4.629c9.771,3.088 17.925,7.092 24.467,12.013c6.613,4.85 11.279,9.992 13.996,15.429l0.442,2.312Zm-72.075,-52.125c-7.125,-0.075 -13.554,-1.946 -19.283,-5.621c-5.729,-3.675 -10.288,-8.633 -13.667,-14.879c-3.304,-6.317 -4.996,-13.408 -5.071,-21.271c-0.075,-7.421 1.579,-14.217 4.958,-20.388c3.454,-6.171 8.046,-11.129 13.775,-14.879c5.804,-3.746 12.233,-5.621 19.283,-5.621c7.125,0 13.554,1.875 19.283,5.621c5.729,3.746 10.287,8.704 13.667,14.879c3.454,6.171 5.179,12.967 5.179,20.388c0,7.862 -1.692,14.95 -5.071,21.271c-3.379,6.317 -7.933,11.35 -13.667,15.096c-5.729,3.675 -12.196,5.475 -19.396,5.4l0.008,0.004Z" style="fill:#eaeaea;fill-opacity:0.2;fill-rule:nonzero;"/></svg>