<?xml version="1.0" encoding="UTF-8" standalone="no"?><!DOCTYPE svg PUBLIC "-//W3C//DTD SVG 1.1//EN" "http://www.w3.org/Graphics/SVG/1.1/DTD/svg11.dtd"><svg width="100%" height="100%" viewBox="0 0 67 46" version="1.1" xmlns="http://www.w3.org/2000/svg" xmlns:xlink="http://www.w3.org/1999/xlink" xml:space="preserve" xmlns:serif="http://www.serif.com/" style="fill-rule:evenodd;clip-rule:evenodd;stroke-linejoin:round;stroke-miterlimit:2;"><path d="M33.333,45.131c-0.353,0 -0.705,-0.097 -1.058,-0.291c-0.335,-0.194 -0.767,-0.555 -1.296,-1.084l-6.533,-6.268c-0.247,-0.247 -0.406,-0.511 -0.476,-0.793c-0.053,-0.3 0,-0.582 0.159,-0.846c0.97,-1.287 2.266,-2.363 3.888,-3.227c1.64,-0.882 3.412,-1.322 5.316,-1.322c1.851,0 3.579,0.414 5.184,1.243c1.605,0.829 2.892,1.851 3.861,3.068c0.247,0.3 0.344,0.626 0.291,0.979c-0.035,0.353 -0.185,0.652 -0.45,0.899l-6.533,6.268c-0.529,0.529 -0.97,0.89 -1.322,1.084c-0.335,0.194 -0.679,0.291 -1.032,0.291Zm-15.843,-14.811l-4.205,-4.1c-0.265,-0.265 -0.406,-0.555 -0.423,-0.873c-0.018,-0.335 0.088,-0.644 0.317,-0.926c1.411,-1.675 3.156,-3.156 5.237,-4.443c2.081,-1.305 4.39,-2.327 6.93,-3.068c2.557,-0.741 5.219,-1.111 7.987,-1.111c2.768,0 5.422,0.37 7.961,1.111c2.539,0.741 4.849,1.763 6.929,3.068c2.098,1.287 3.844,2.768 5.237,4.443c0.247,0.282 0.352,0.591 0.317,0.926c-0.018,0.335 -0.158,0.626 -0.423,0.873l-4.205,4.1c-0.335,0.317 -0.697,0.476 -1.085,0.476c-0.37,0 -0.705,-0.159 -1.005,-0.476c-1.675,-1.781 -3.729,-3.236 -6.162,-4.364c-2.416,-1.128 -4.937,-1.684 -7.564,-1.666c-2.592,-0.018 -5.105,0.529 -7.538,1.64c-2.416,1.093 -4.443,2.521 -6.083,4.285c-0.317,0.353 -0.688,0.547 -1.111,0.582c-0.406,0.018 -0.776,-0.141 -1.111,-0.476Zm-11.108,-10.976l-3.729,-3.809c-0.264,-0.282 -0.406,-0.591 -0.423,-0.926c-0.018,-0.353 0.088,-0.661 0.317,-0.926c2.134,-2.663 4.822,-5.016 8.067,-7.062c3.244,-2.063 6.806,-3.668 10.685,-4.814c3.897,-1.164 7.908,-1.746 12.034,-1.746c4.108,0 8.111,0.582 12.008,1.746c3.897,1.164 7.459,2.768 10.685,4.814c3.244,2.045 5.933,4.399 8.067,7.062c0.247,0.264 0.362,0.573 0.344,0.926c0,0.335 -0.141,0.644 -0.423,0.926l-3.756,3.756c-0.3,0.3 -0.652,0.458 -1.058,0.476c-0.405,0.018 -0.758,-0.123 -1.058,-0.423c-3.244,-3.491 -6.983,-6.136 -11.214,-7.935c-4.214,-1.816 -8.746,-2.724 -13.595,-2.724c-4.814,0 -9.328,0.908 -13.542,2.724c-4.214,1.798 -7.961,4.435 -11.241,7.908c-0.3,0.317 -0.661,0.485 -1.084,0.503c-0.406,0 -0.767,-0.159 -1.084,-0.476Z" style="fill:#eaeaea;fill-rule:nonzero;"/><path d="M33.333,45.131c-0.353,0 -0.705,-0.097 -1.058,-0.291c-0.335,-0.194 -0.767,-0.555 -1.296,-1.084l-6.533,-6.268c-0.247,-0.247 -0.406,-0.511 -0.476,-0.793c-0.053,-0.3 0,-0.582 0.159,-0.846c0.97,-1.287 2.266,-2.363 3.888,-3.227c1.64,-0.882 3.412,-1.322 5.316,-1.322c1.851,0 3.579,0.414 5.184,1.243c1.605,0.829 2.892,1.851 3.861,3.068c0.247,0.3 0.344,0.626 0.291,0.979c-0.035,0.353 -0.185,0.652 -0.45,0.899l-6.533,6.268c-0.529,0.529 -0.97,0.89 -1.322,1.084c-0.335,0.194 -0.679,0.291 -1.032,0.291Zm-15.843,-14.811l-4.205,-4.1c-0.265,-0.265 -0.406,-0.555 -0.423,-0.873c-0.018,-0.335 0.088,-0.644 0.317,-0.926c1.411,-1.675 3.156,-3.156 5.237,-4.443c2.081,-1.305 4.39,-2.327 6.93,-3.068c2.557,-0.741 5.219,-1.111 7.987,-1.111c2.768,0 5.422,0.37 7.961,1.111c2.539,0.741 4.849,1.763 6.929,3.068c2.098,1.287 3.844,2.768 5.237,4.443c0.247,0.282 0.352,0.591 0.317,0.926c-0.018,0.335 -0.158,0.626 -0.423,0.873l-4.205,4.1c-0.335,0.317 -0.697,0.476 -1.085,0.476c-0.37,0 -0.705,-0.159 -1.005,-0.476c-1.675,-1.781 -3.729,-3.236 -6.162,-4.364c-2.416,-1.128 -4.937,-1.684 -7.564,-1.666c-2.592,-0.018 -5.105,0.529 -7.538,1.64c-2.416,1.093 -4.443,2.521 -6.083,4.285c-0.317,0.353 -0.688,0.547 -1.111,0.582c-0.406,0.018 -0.776,-0.141 -1.111,-0.476Zm-11.108,-10.976l-3.729,-3.809c-0.264,-0.282 -0.406,-0.591 -0.423,-0.926c-0.018,-0.353 0.088,-0.661 0.317,-0.926c2.134,-2.663 4.822,-5.016 8.067,-7.062c3.244,-2.063 6.806,-3.668 10.685,-4.814c3.897,-1.164 7.908,-1.746 12.034,-1.746c4.108,0 8.111,0.582 12.008,1.746c3.897,1.164 7.459,2.768 10.685,4.814c3.244,2.045 5.933,4.399 8.067,7.062c0.247,0.264 0.362,0.573 0.344,0.926c0,0.335 -0.141,0.644 -0.423,0.926l-3.756,3.756c-0.3,0.3 -0.652,0.458 -1.058,0.476c-0.405,0.018 -0.758,-0.123 -1.058,-0.423c-3.244,-3.491 -6.983,-6.136 -11.214,-7.935c-4.214,-1.816 -8.746,-2.724 -13.595,-2.724c-4.814,0 -9.328,0.908 -13.542,2.724c-4.214,1.798 -7.961,4.435 -11.241,7.908c-0.3,0.317 -0.661,0.485 -1.084,0.503c-0.406,0 -0.767,-0.159 -1.084,-0.476Z" style="fill:#eaeaea;fill-opacity:0.2;fill-rule:nonzero;"/></svg>